<?xml version="1.0" encoding="UTF-8" standalone="no"?>
<!-- Created with Inkscape (http://www.inkscape.org/) -->

<svg
   xmlns:dc="http://purl.org/dc/elements/1.1/"
   xmlns:cc="http://creativecommons.org/ns#"
   xmlns:rdf="http://www.w3.org/1999/02/22-rdf-syntax-ns#"
   xmlns:svg="http://www.w3.org/2000/svg"
   xmlns="http://www.w3.org/2000/svg"
   xmlns:sodipodi="http://sodipodi.sourceforge.net/DTD/sodipodi-0.dtd"
   xmlns:inkscape="http://www.inkscape.org/namespaces/inkscape"
   width="210mm"
   height="297mm"
   viewBox="0 0 210 297"
   version="1.1"
   id="svg1348"
   inkscape:version="0.92.5 (0.92.4+202005162354+6c0c36e)"
   sodipodi:docname="drawing-tag.svg">
  <defs
     id="defs1342" />
  <sodipodi:namedview
     id="base"
     pagecolor="#ffffff"
     bordercolor="#666666"
     borderopacity="1.0"
     inkscape:pageopacity="0.0"
     inkscape:pageshadow="2"
     inkscape:zoom="0.24748737"
     inkscape:cx="-18.72222"
     inkscape:cy="2258.3992"
     inkscape:document-units="mm"
     inkscape:current-layer="layer1"
     showgrid="false"
     inkscape:window-width="1295"
     inkscape:window-height="744"
     inkscape:window-x="65"
     inkscape:window-y="24"
     inkscape:window-maximized="1" />
  <metadata
     id="metadata1345">
    <rdf:RDF>
      <cc:Work
         rdf:about="">
        <dc:format>image/svg+xml</dc:format>
        <dc:type
           rdf:resource="http://purl.org/dc/dcmitype/StillImage" />
        <dc:title></dc:title>
      </cc:Work>
    </rdf:RDF>
  </metadata>
  <g
     inkscape:label="Layer 1"
     inkscape:groupmode="layer"
     id="layer1">
    <path
       style="fill:#e6e6e6;fill-opacity:1;fill-rule:nonzero;stroke:none;stroke-width:0.40000001;stroke-linecap:round;stroke-linejoin:round;stroke-miterlimit:4;stroke-dasharray:none;stroke-opacity:1"
       id="path1893"
       d="m 63.957755,143.67961 c 0.309906,-1.44113 0.240353,-2.93585 0.146772,-4.39573 -0.310711,-2.48271 -0.940101,-4.95649 -2.002546,-7.23049 -0.132226,-0.28301 -0.295318,-0.55055 -0.442976,-0.82582 -0.112615,-0.13102 -0.180806,-0.32104 -0.337842,-0.39307 -0.06632,-0.0304 -0.188857,0.20762 -0.120173,0.18298 0.772154,-0.27703 1.448374,-0.94674 2.268688,-0.95381 0.311732,-0.003 -0.03499,0.62283 -0.0353,0.93457 -0.0011,1.13444 0.06846,1.98306 0.135808,3.13931 0.323543,3.66765 0.527037,7.38211 1.338421,10.98562 0.141267,0.62738 0.335672,1.24161 0.503508,1.86242 0.41397,0.97454 0.62943,1.80393 1.414055,2.54892 0.260898,0.24771 0.614664,0.37405 0.921999,0.56107 0,0 -2.109529,1.34918 -2.109529,1.34918 v 0 c -0.304403,-0.22534 -0.660045,-0.39434 -0.913212,-0.67603 -0.72759,-0.80957 -0.930753,-1.71114 -1.295204,-2.71079 -0.149598,-0.63662 -0.320677,-1.26858 -0.448791,-1.90988 -0.721239,-3.61028 -0.989425,-7.29638 -1.462363,-10.94215 -0.199467,-1.62918 -0.19432,-1.54846 -0.360992,-3.03797 -0.03387,-0.30268 -0.289724,-0.67118 -0.09867,-0.90838 0.637109,-0.79096 1.536031,-1.3355 2.371389,-1.91316 0.06611,-0.0457 0.152755,0.07 0.199663,0.13524 0.106867,0.14872 0.166213,0.32639 0.249319,0.48959 1.057471,2.64029 1.943328,5.36475 2.402041,8.17778 0.05095,0.4184 0.113654,0.83553 0.15285,1.25518 0.09514,1.01872 0.06712,2.04165 0.05457,3.06273 0,0 -2.531488,1.21269 -2.531488,1.21269 z"
       inkscape:connector-curvature="0" />
    <path
       style="fill:#cccccc;fill-opacity:1;fill-rule:nonzero;stroke:none;stroke-width:0.40000001;stroke-linecap:round;stroke-linejoin:round;stroke-miterlimit:4;stroke-dasharray:none;stroke-opacity:1"
       id="path1897"
       d="m 22.248477,-232.52799 c 0.22292,-0.13527 0.442254,-0.27663 0.668769,-0.4058 1.383508,-0.78898 1.331337,-0.67462 2.861422,-1.64283 2.463954,-1.55915 4.748123,-3.33731 7.035737,-5.13933 3.78597,-3.1476 7.344176,-6.64964 10.08859,-10.76494 1.868336,-2.8016 2.023794,-3.49968 3.365543,-6.53499 0.762318,-2.51505 2.643625,-7.2659 1.670789,-9.93567 -0.142562,-0.39138 -1.016311,-1.31634 -0.728199,-1.01552 0.946359,0.98805 1.805955,2.05569 2.708937,3.08354 -0.577887,-0.0118 -1.1612,-0.11528 -1.733669,-0.0354 -1.838732,0.25655 -3.820659,1.11794 -5.43848,1.922 -4.215685,2.09518 -7.983222,4.84791 -11.776898,7.60428 -8.586774,6.44518 -15.935253,14.28263 -22.852186,22.44373 -1.6853913,2.10248 -3.4293352,4.17163 -4.9159803,6.42455 -0.4831,0.73211 -0.9415749,1.41938 -1.1323766,2.28736 -0.077978,0.35472 -0.057345,0.72412 -0.086013,1.08618 0.061503,0.40811 0.077387,0.82575 0.1846233,1.22428 0.4590369,1.70592 1.5733283,3.2049 2.6261407,4.58072 1.5739574,2.05684 2.1695909,2.65263 3.9597453,4.68055 0.8754313,0.94851 1.7508623,1.89702 2.6262843,2.84554 0,0 -3.706858,-2.53459 -3.706858,-2.53459 v 0 c -0.9139799,-0.97897 -1.8279501,-1.95794 -2.7419204,-2.93691 -1.7236036,-1.92852 -2.6911296,-2.93184 -4.22742888,-4.92819 -1.13830552,-1.47916 -2.29415092,-3.09147 -2.70158632,-4.95401 -0.096819,-0.44275 -0.092487,-0.90169 -0.1387354,-1.35254 0.061717,-0.39961 0.065866,-0.81248 0.1851417,-1.19884 0.2783737,-0.90173 0.8152065,-1.50822 1.40726886,-2.22457 1.71843194,-2.07918 3.61876434,-4.00004 5.44050474,-5.98609 7.3642277,-7.77977 14.6865797,-15.65086 23.1237827,-22.30168 3.69358,-2.86272 7.366958,-5.72693 11.418522,-8.07893 1.618621,-0.93963 3.425262,-1.89764 5.262394,-2.38064 0.588849,-0.15482 1.206986,-0.16129 1.810483,-0.24194 1.668336,1.35465 3.441931,2.58909 5.004997,4.06396 0.63093,0.59533 0.587636,2.07974 0.521935,2.75375 -0.274084,2.81301 -1.42317,5.47235 -2.315528,8.11737 -1.41273,3.06899 -1.567728,3.7219 -3.477268,6.56825 -2.774653,4.1359 -6.30428,7.70245 -10.041441,10.96455 -2.225312,1.86497 -4.46081,3.7087 -6.783361,5.45258 -0.853699,0.641 -1.743766,1.23274 -2.595152,1.87682 -0.189372,0.14325 -0.365932,0.3027 -0.548898,0.45404 0,0 -4.029631,-3.84064 -4.029631,-3.84064 z"
       inkscape:connector-curvature="0" />
    <path
       style="fill:#cccccc;fill-opacity:1;fill-rule:nonzero;stroke:none;stroke-width:0.40000001;stroke-linecap:round;stroke-linejoin:round;stroke-miterlimit:4;stroke-dasharray:none;stroke-opacity:1"
       id="path1899"
       d="m 24.253623,-209.7847 c -0.36532,-1.34317 -0.671105,-2.71553 -1.172038,-4.01768 -0.513605,-1.33519 -0.883326,-1.95091 -1.553115,-3.2359 -0.963077,-1.75656 -2.029414,-3.44959 -3.373346,-4.94282 -0.402157,-0.44684 -1.707523,-1.69288 -1.271396,-1.27912 3.094629,2.93591 3.334527,2.98015 1.285407,1.64978 -0.946145,-0.51402 -1.948927,-0.84296 -3.015444,-0.97532 -0.22979,-0.0285 -0.461671,-0.0403 -0.69315,-0.0456 -0.116208,-0.003 -0.272288,0.10971 -0.348053,0.0216 -1.117565,-1.30032 -2.091312,-2.71763 -3.136972,-4.07644 4.50711,0.29917 9.002869,0.74214 13.508484,1.0678 4.265172,0.27562 8.542783,0.53515 12.817533,0.32205 2.403473,-0.11982 3.03889,-0.2386 5.376979,-0.52499 2.701825,-0.40908 5.363297,-1.09461 7.804042,-2.34752 0.993142,-0.5098 1.351323,-0.79184 2.243693,-1.40113 0.347544,-0.28412 1.049122,-0.80944 1.344583,-1.20774 0.07392,-0.0996 0.190008,-0.24381 0.126173,-0.35021 -0.05644,-0.094 -0.401461,-0.0689 -0.328545,0.0129 1.146537,1.2866 2.620011,2.28628 3.624992,3.68625 0.166736,0.23219 -0.555472,0.13517 -0.833202,0.20277 -2.723631,1.16864 -4.992667,3.16104 -6.906671,5.3948 -0.579895,0.67677 -1.109749,1.39487 -1.664624,2.0923 -3.285436,4.4584 -5.635894,9.56538 -6.685315,15.01704 -0.207242,1.07658 -0.305075,2.17135 -0.457621,3.25704 -0.131019,3.54063 -0.196669,1.88042 0.110552,4.98329 0,0 -3.947418,-3.12057 -3.947418,-3.12057 v 0 c -0.03621,-3.01295 -0.08755,-1.39757 0.222043,-4.84352 0.17548,-1.08529 0.302905,-2.17945 0.52643,-3.25587 1.143369,-5.50599 3.451202,-10.69537 6.639459,-15.317 0.538784,-0.72884 1.053551,-1.47607 1.616353,-2.18653 1.879687,-2.37289 4.111599,-4.43045 6.776798,-5.88839 0.288374,-0.12946 0.592298,-0.54801 0.865127,-0.38838 1.700233,0.9948 3.190337,2.32152 4.667084,3.62523 0.106291,0.0938 -0.02639,0.28891 -0.08982,0.41568 -0.163314,0.32642 -0.717905,0.74653 -0.946305,0.92568 -0.284738,0.22334 -0.58142,0.43103 -0.872126,0.64654 -3.228989,2.01588 -6.716741,3.15553 -10.502346,3.62159 -2.464304,0.26217 -2.96771,0.3555 -5.500676,0.45562 -4.286197,0.16941 -8.569916,-0.0864 -12.849568,-0.29616 -4.324241,-0.23672 -8.658742,-0.64994 -12.990797,-0.52959 -1.431709,-1.36594 -2.9352,-2.66039 -4.295128,-4.09782 -0.101865,-0.10768 0.296097,0.0156 0.443894,0.0271 1.411255,0.10965 2.77562,0.34353 4.044964,1.01942 3.099165,1.857 1.410115,0.73037 6.265015,5.30003 1.904701,1.7928 3.257349,4.06479 4.529486,6.32167 0.748664,1.45593 1.00763,1.8684 1.600791,3.36717 0.551917,1.39455 0.924696,2.85347 1.460263,4.25392 0,0 -4.4665,-3.35894 -4.4665,-3.35894 z"
       inkscape:connector-curvature="0" />
    <path
       style="fill:#cccccc;fill-opacity:1;fill-rule:nonzero;stroke:none;stroke-width:0.40000001;stroke-linecap:round;stroke-linejoin:round;stroke-miterlimit:4;stroke-dasharray:none;stroke-opacity:1"
       id="path1905"
       d="m 37.592796,-201.09047 c 2.596454,1.24354 5.500956,1.72799 8.30149,2.30585 4.688396,0.95455 9.446776,1.63721 14.2415,1.62422 1.083785,-0.003 2.166336,-0.0738 3.2495,-0.11072 5.954795,-0.35413 11.745719,-1.82003 17.465289,-3.42219 3.225224,-0.92758 6.518043,-1.87135 9.312862,-3.79973 0.357831,-0.2469 0.688427,-0.53113 1.032636,-0.79669 2.064618,-1.9836 1.84118,-3.93443 1.463679,-6.56646 -0.705111,-3.03919 -1.352045,-6.19751 -2.506894,-9.10703 -0.210917,-0.53133 -0.48191,-1.0368 -0.722866,-1.5552 -0.312356,-0.40279 -1.31345,-1.55211 -0.937079,-1.20837 0.906013,0.82746 2.044746,1.54386 2.535688,2.66837 0.225527,0.51656 -1.047576,-0.44587 -1.60418,-0.5347 -2.670306,-0.42617 -5.253417,0.60483 -7.731161,1.40523 -6.484881,2.65404 -12.264629,6.73862 -17.541655,11.30293 -0.968019,0.83727 -1.892484,1.7236 -2.838731,2.58541 -1.659095,1.69717 -3.464624,3.31832 -4.802749,5.30081 -0.145768,0.21596 -0.657967,1.0047 -0.570156,1.42293 0.02271,0.10811 0.167866,0.14365 0.251803,0.21547 -6.797195,-6.6715 -4.058765,-2.31918 -1.593189,-3.94815 0.915716,-1.69053 0.346659,-4.12581 0.09999,-5.93337 -0.401017,-2.18373 -0.681934,-4.4293 -1.510376,-6.50129 -2.030151,-2.35571 1.810596,1.39851 2.458367,2.32061 0.255947,0.36433 -0.811873,-0.37555 -1.241156,-0.49373 -0.559699,-0.15408 -1.136034,-0.24698 -1.712027,-0.3193 -1.817818,-0.22823 -2.762845,-0.16745 -4.629526,-0.17023 -2.683922,0.0625 -5.354467,0.36786 -8.000653,0.80847 -1.095758,0.18246 -3.30084,0.5715 -4.400507,0.97336 -0.526757,0.1925 -1.00159,0.50487 -1.502385,0.75731 -0.255269,0.37128 -0.654918,0.67714 -0.765829,1.11384 -0.299022,1.17739 0.495109,2.79526 0.977158,3.70149 1.062812,1.99801 2.402137,3.6682 3.73852,5.48833 0,0 -3.751043,-2.62784 -3.751043,-2.62784 v 0 c -1.302927,-1.76509 -2.937266,-3.81847 -3.960125,-5.79368 -0.636598,-1.22932 -1.374216,-2.8307 -0.870597,-4.29107 0.172789,-0.50105 0.666062,-0.82462 0.999098,-1.23693 0.552063,-0.24911 1.080707,-0.55851 1.656179,-0.74735 1.064725,-0.34937 3.493394,-0.73776 4.53752,-0.89931 2.655558,-0.41089 5.327524,-0.73099 8.010796,-0.88922 2.074891,-0.0753 4.182978,-0.21176 6.245659,0.12926 0.442334,0.0731 0.948016,0.052 1.30591,0.32201 4.216417,3.1814 3.762322,2.60795 5.22599,5.0653 0.719162,2.09727 0.9677,4.30826 1.309365,6.49112 0.25915,1.7687 0.847236,4.26296 0.109413,5.98742 -0.08939,0.20894 -0.241142,0.38528 -0.361713,0.57792 -0.161858,0.12796 -0.303443,0.28695 -0.485583,0.38388 -0.392553,0.20891 -1.005043,0.22604 -1.436387,0.27874 -0.187467,0.0229 -0.414162,0.18651 -0.562328,0.0694 -1.535931,-1.21401 -2.897977,-2.63314 -4.346966,-3.94971 0.0523,-0.83693 0.387483,-1.19286 0.974027,-1.8213 1.647201,-1.76485 3.542703,-3.28063 5.327897,-4.89702 6.332687,-5.32398 12.768624,-10.70143 20.363087,-14.15092 2.435257,-0.93937 4.962763,-2.10565 7.653183,-1.93421 3.396232,0.21642 5.829695,3.30917 7.53677,6.03117 1.444632,3.47306 2.354814,7.15242 3.193216,10.8124 0.417111,2.94815 0.555245,4.87626 -1.795255,7.02369 -0.37004,0.26534 -0.725852,0.55175 -1.110128,0.79602 -2.934672,1.86543 -6.348679,2.7177 -9.658735,3.64276 -5.793004,1.55312 -11.648978,3.00167 -17.657876,3.37751 -1.088254,0.0452 -2.175658,0.12113 -3.264744,0.13569 -4.719497,0.0631 -9.415502,-0.49525 -14.058777,-1.29525 -2.716122,-0.4899 -5.444386,-0.98295 -8.083299,-1.80556 0,0 -3.561914,-4.31239 -3.561914,-4.31239 z"
       inkscape:connector-curvature="0" />
    <path
       style="fill:#cccccc;fill-opacity:1;fill-rule:nonzero;stroke:none;stroke-width:0.40000001;stroke-linecap:round;stroke-linejoin:round;stroke-miterlimit:4;stroke-dasharray:none;stroke-opacity:1"
       id="path1909"
       d="m 52.21072,-246.68831 c 3.830231,-0.14908 7.661439,-0.25899 11.495092,-0.26483 4.486751,0.0281 9.013931,0.46422 13.280079,1.93429 0.852539,0.29377 1.6753,0.66774 2.512955,1.00161 3.033098,1.51667 1.592457,0.72622 4.332518,2.35196 0,0 3.140625,3.85019 3.140625,3.85019 v 0 c -2.75276,-1.73443 -1.309733,-0.90074 -4.338984,-2.48384 -0.827908,-0.34673 -1.639373,-0.73567 -2.483724,-1.04019 -4.203193,-1.51593 -8.690861,-1.97116 -13.131671,-1.98583 -3.686675,0.0455 -7.387165,0.1412 -11.039508,0.68732 0,0 -3.767382,-4.05068 -3.767382,-4.05068 z"
       inkscape:connector-curvature="0" />
    <path
       style="fill:#cccccc;fill-opacity:1;fill-rule:nonzero;stroke:none;stroke-width:0.40000001;stroke-linecap:round;stroke-linejoin:round;stroke-miterlimit:4;stroke-dasharray:none;stroke-opacity:1"
       id="path1913"
       d="m 67.272111,-180.44865 c -0.82846,2.77393 -1.684178,5.53908 -2.677286,8.25891 -1.244556,3.04253 -2.702886,6.02698 -4.698704,8.65649 -1.358288,1.78955 -2.303189,2.67511 -3.86917,4.30572 -4.202796,4.1274 -9.173302,7.29918 -14.339291,10.06759 -1.736551,0.7387 -3.946262,2.26663 -5.938574,1.4056 -0.385594,-0.16664 -0.736515,-0.42489 -1.031403,-0.72404 -1.539302,-1.56151 -2.969372,-3.22705 -4.454058,-4.84057 -0.07072,-0.5742 -0.204675,-1.14412 -0.212127,-1.72262 -0.04376,-3.39839 1.238423,-7.07258 2.598942,-10.13102 0.41524,-0.93346 0.901072,-1.83387 1.351617,-2.75081 2.543873,-4.38401 6.152845,-8.15375 10.769439,-10.36998 0.913758,-0.43865 1.887354,-0.73985 2.831026,-1.10978 0.971411,-0.21549 1.928389,-0.51163 2.914231,-0.64646 3.690052,-0.50466 7.426462,0.20039 10.894457,1.45334 0.7582,0.27393 1.492401,0.61021 2.238596,0.91531 2.527971,1.12164 4.901039,2.58209 6.950737,4.44771 4.89989,4.45985 3.738226,3.24829 6.399804,6.221 1.689888,1.87884 3.234583,3.89092 5.001733,5.70046 0.400353,0.40997 1.635553,1.60545 1.237754,1.19299 -0.826905,-0.85736 -1.683661,-1.68544 -2.525486,-2.52816 2.045129,1.41187 4.146265,1.6463 6.507575,0.8745 0.495386,-0.16192 0.961652,-0.40215 1.442482,-0.60323 1.199301,-0.72224 3.945044,-2.13156 4.225097,-3.69852 0.03972,-0.22223 -0.04433,-0.44931 -0.06644,-0.67397 -0.136313,-0.24759 -0.239626,-0.5165 -0.408978,-0.74276 -0.21558,-0.28796 -1.003539,-1.02984 -0.737133,-0.78814 0.961438,0.87225 1.951872,1.72017 2.824167,2.68157 0.334355,0.36849 -0.784947,-0.61314 -1.198491,-0.88984 -1.059629,-0.70898 -1.34713,-0.79578 -2.469935,-1.32545 -1.098987,-0.40461 -2.516096,-1.0187 -3.648083,-0.31541 -0.55148,0.34263 -0.962869,1.06238 -1.310422,1.55366 -0.256639,0.45737 -0.529725,0.9059 -0.769926,1.37212 -0.584227,1.13398 -1.089148,2.35444 -1.616686,3.51237 -1.197256,2.62794 -2.442997,5.23405 -3.652228,7.85654 -2.072742,4.54933 -1.034547,2.24531 -3.113317,6.91267 0,0 -3.402779,-2.95984 -3.402779,-2.95984 v 0 c 2.034917,-4.71367 1.037069,-2.37499 2.99468,-7.01555 1.837245,-4.42216 3.574215,-8.89575 5.625453,-13.22295 0.443648,-0.70553 0.749434,-1.37666 1.454316,-1.86349 1.254533,-0.86645 2.792677,-0.35873 4.06467,0.13302 3.893785,1.72902 5.154193,3.19367 8.603013,6.60641 0.279233,0.27631 0.513526,0.60303 0.696546,0.95063 0.15584,0.29589 0.204757,0.63672 0.306849,0.95517 -0.03559,0.28085 -0.01593,0.57444 -0.10677,0.84257 -0.579292,1.70975 -3.229621,2.94429 -4.641064,3.80914 -0.495577,0.22516 -0.975828,0.48765 -1.486722,0.67546 -1.793182,0.6592 -3.843263,0.89896 -5.642614,0.12448 -0.431801,-0.18585 -0.818673,-0.46231 -1.228004,-0.69347 -1.664647,-1.47785 -3.347638,-2.9353 -4.993952,-4.43355 -2.280612,-2.0755 -4.062105,-4.63748 -6.166224,-6.87807 -0.434174,-0.46975 -1.835272,-1.76329 -1.302521,-1.40925 0.838367,0.55712 1.52794,1.31417 2.23604,2.02961 0.483026,0.48804 -1.021305,-0.91946 -1.559424,-1.34599 -1.05219,-0.834 -2.223923,-1.60713 -3.392374,-2.2668 -0.637829,-0.3601 -1.299657,-0.67592 -1.94949,-1.01387 -0.745382,-0.32451 -1.478045,-0.67995 -2.236135,-0.97354 -3.417145,-1.32334 -7.101042,-2.14287 -10.781369,-1.71013 -0.969524,0.114 -1.913397,0.38832 -2.870095,0.58248 -0.926848,0.35304 -1.883186,0.63671 -2.78055,1.05912 -3.559945,1.67575 -6.688297,4.42941 -8.980393,7.61029 -0.585868,0.81305 -1.068635,1.69564 -1.602948,2.54346 -0.439575,0.90854 -0.922047,1.79755 -1.318716,2.72562 -1.295326,3.03061 -2.472807,6.82345 -2.124529,10.16898 0.05815,0.55869 0.258332,1.09331 0.387488,1.63997 -1.032186,-0.79526 -2.019602,-1.65229 -3.096558,-2.38578 -0.332637,-0.22654 0.514402,0.63586 0.851029,0.85643 0.322581,0.21136 0.700077,0.35563 1.08187,0.41005 1.676115,0.2389 3.327843,-0.74631 4.820963,-1.28916 1.926223,-0.93389 2.643256,-1.23881 4.543269,-2.3476 3.561591,-2.07843 6.887936,-4.55853 9.803829,-7.48026 1.520843,-1.64497 2.422944,-2.52578 3.743437,-4.3149 1.946808,-2.6377 3.343217,-5.6183 4.475734,-8.68143 0.924593,-2.78123 1.833716,-5.60798 2.225449,-8.52128 0,0 4.298637,3.55624 4.298637,3.55624 z"
       inkscape:connector-curvature="0" />
    <path
       style="fill:#cccccc;fill-opacity:1;fill-rule:nonzero;stroke:none;stroke-width:0.40000001;stroke-linecap:round;stroke-linejoin:round;stroke-miterlimit:4;stroke-dasharray:none;stroke-opacity:1"
       id="path1917"
       d="m 107.58308,-169.70542 c 1.48512,-0.28205 2.87402,-1.19138 3.88022,-2.3049 0.29557,-0.32707 0.53593,-0.70011 0.80389,-1.05016 2.1682,-3.34078 2.53196,-7.33522 2.82278,-11.20626 0.11947,-2.53007 0.047,-5.06393 -0.10521,-7.59063 -0.0934,-1.55061 -0.14684,-2.75513 -0.49729,-4.2631 -0.13535,-0.58336 -0.35415,-1.14415 -0.53075,-1.71636 -0.28623,-0.4512 -1.14094,-1.80729 -0.85868,-1.35361 0.63569,1.02174 1.73942,1.86789 1.91895,3.05777 0.0889,0.58905 -1.02665,-0.61642 -1.58282,-0.8299 -2.25424,-0.86526 -4.46677,-0.7956 -6.82779,-0.7431 -3.21887,0.42345 -6.56166,1.29715 -8.986789,3.60541 -1.440567,1.37114 -1.544642,1.96756 -2.415309,3.71949 -0.195676,0.78749 -0.467812,1.55984 -0.587054,2.36247 -0.811865,5.4644 1.34215,10.79656 3.259238,15.78389 2.434684,5.91853 5.572624,11.5105 8.729374,17.06596 0.61242,1.4217 2.637,4.04184 2.62886,5.65208 -0.004,0.72508 -0.31826,0.90065 -0.75313,1.39235 -0.26672,0.14793 -0.52203,0.31863 -0.80023,0.44369 -0.0888,0.0398 -2.01861,0.72935 -2.05766,0.74308 -1.24444,0.43743 -2.47553,0.875 -3.69555,1.37754 -1.7617,0.6945 -3.422741,1.56932 -4.760824,2.91972 -1.026377,1.43979 -1.521553,2.45524 -1.569993,4.23985 -0.540532,-0.23324 1.387376,2.2216 1.056649,1.65634 -0.683969,-1.16896 -1.780097,-2.1264 -2.206016,-3.41203 -0.157738,-0.4763 0.860433,0.5208 1.317067,0.72871 1.367067,0.62244 2.333048,0.82509 3.800045,1.23555 5.282922,1.23823 10.720132,1.30937 16.108042,0.99511 3.08486,-0.30448 6.15614,-1.13985 8.48224,-3.30604 1.43264,-1.33415 1.6354,-1.95846 2.61889,-3.6297 0.81002,-1.81433 1.54224,-3.70434 1.79075,-5.69096 0.0439,-0.35168 0.0718,-0.71145 0.0264,-1.06293 -0.0234,-0.18128 -0.34063,-0.64278 -0.22827,-0.49859 1.11505,1.43145 2.1631,2.91385 3.24464,4.37078 -1.58696,2.63147 -2.69382,5.51107 -3.76722,8.38076 -1.65735,4.48287 -3.73309,8.83744 -6.4281,12.79633 -0.60657,0.89107 -1.27374,1.73935 -1.91058,2.60906 -3.90232,5.10805 -8.97646,9.04399 -14.16479,12.74899 -1.94611,1.19403 -3.9247,2.90621 -6.312668,3.11449 -1.098654,0.0958 -1.396018,-0.13086 -2.385262,-0.49048 0,0 -2.720508,-4.57658 -2.720508,-4.57658 v 0 c 0.833277,0.41766 1.171458,0.70575 2.149937,0.70767 2.291161,0.004 4.461551,-1.65142 6.377611,-2.66578 0.753,-0.48815 1.52032,-0.95487 2.259,-1.46442 4.47266,-3.0853 8.55443,-6.7406 11.86931,-11.05968 0.6226,-0.86978 1.2761,-1.71824 1.86773,-2.60935 2.65313,-3.99612 4.66659,-8.3858 6.18853,-12.92561 0.67055,-1.94649 1.37151,-3.86351 2.16662,-5.76277 0.15311,-0.36575 0.92481,-2.1896 1.156,-2.63183 0.14501,-0.27745 0.33156,-0.5311 0.49734,-0.79667 1.23194,1.42318 2.54437,2.78049 3.69583,4.26955 0.10758,0.13928 -0.15792,1.35083 -0.19235,1.48796 -0.48614,1.93592 -1.21186,3.81088 -2.04982,5.61873 -1.03699,1.7281 -1.26174,2.38539 -2.75907,3.76528 -2.41945,2.22967 -5.5913,3.08072 -8.78746,3.38032 -5.39479,0.26328 -10.82956,0.20907 -16.15645,-0.7907 -1.40348,-0.32518 -2.458662,-0.51676 -3.795433,-1.01461 -0.468353,-0.17444 -1.012701,-0.2639 -1.366615,-0.61681 -1.531563,-1.52724 -2.840554,-3.26355 -4.206504,-4.94058 -0.235444,-0.28912 -0.444657,-0.60671 -0.591088,-0.9496 -0.136416,-0.31953 -0.164643,-0.67508 -0.246866,-1.01264 0.02667,-0.29498 0.03119,-0.59277 0.07993,-0.88488 0.226757,-1.3593 0.984263,-2.54395 1.775077,-3.64045 0.448792,-0.42205 0.672251,-0.66279 1.190447,-1.01827 1.179038,-0.80885 2.538503,-1.3182 3.838202,-1.88905 1.222832,-0.48376 2.453962,-0.94452 3.679052,-1.42248 0.0208,-0.008 1.82248,-0.71897 1.93516,-0.77247 0.21544,-0.10229 0.41308,-0.23847 0.61963,-0.35772 0.11214,-0.1453 0.2672,-0.2659 0.33608,-0.43616 0.18249,-0.4479 0.0289,-0.95829 -0.11711,-1.3792 -0.53922,-1.55473 -1.48102,-2.93474 -2.20006,-4.40296 -3.03257,-5.50472 -6.086449,-11.01978 -8.432453,-16.86204 -1.958594,-5.13316 -4.144215,-10.63046 -3.288102,-16.24685 0.128414,-0.84236 0.423503,-1.6507 0.635247,-2.47606 0.943905,-1.82545 1.059621,-2.44663 2.600737,-3.85829 2.526424,-2.3142 5.976751,-3.21251 9.262091,-3.72856 2.34127,-0.12212 4.63516,-0.24756 6.91765,0.43631 0.58116,0.17413 1.24961,0.27027 1.6817,0.69617 3.49948,3.44927 3.49667,3.68407 4.99301,6.56807 0.14472,0.56956 0.32618,1.13102 0.43425,1.70866 0.27029,1.44442 0.31287,2.74058 0.37614,4.20991 0.10878,2.534 0.14911,5.07257 0.0452,7.60761 -0.28181,4.0173 -0.57952,8.18856 -2.82949,11.6624 -0.28662,0.36756 -0.55086,0.75374 -0.85984,1.10265 -1.08421,1.22229 -2.46381,2.16853 -3.97456,2.78045 0,0 -3.10993,-4.65958 -3.10993,-4.65958 z"
       inkscape:connector-curvature="0" />
  </g>
</svg>
